<svg width="85" height="76" viewBox="0 0 85 76" fill="none" xmlns="http://www.w3.org/2000/svg">
<path d="M58.6875 29.6667C62.519 29.6667 65.625 26.8684 65.625 23.4167C65.625 19.9649 62.519 17.1667 58.6875 17.1667C54.856 17.1667 51.75 19.9649 51.75 23.4167C51.75 26.8684 54.856 29.6667 58.6875 29.6667Z" fill="#222222" fill-opacity="0.2"/>
<path d="M0.875 8.83333C0.875 4.23096 5.01637 0.5 10.125 0.5H74.875C79.9836 0.5 84.125 4.23096 84.125 8.83333V67.1667C84.125 71.769 79.9836 75.5 74.875 75.5H10.125C5.01637 75.5 0.875 71.769 0.875 67.1667V8.83333ZM74.875 8.83333H10.125V41.8309L25.736 30.5797C27.4251 29.3623 29.8252 29.3623 31.5144 30.5797L51.4069 44.9167L57.7298 39.2204C59.536 37.5932 62.4644 37.5932 64.2705 39.2204L74.875 48.774V8.83333ZM10.125 67.1667H74.875V60.5591L61.0002 48.0592L55.0205 53.4463C53.3541 54.9475 50.7012 55.0799 48.861 53.7536L28.6252 39.1693L10.125 52.5027V67.1667Z" fill="#222222" fill-opacity="0.2"/>
</svg>
