<svg width="40" height="40" viewBox="0 0 40 40" fill="none" xmlns="http://www.w3.org/2000/svg">
<path d="M20.0007 39.1673C9.4149 39.1673 0.833984 30.5864 0.833984 20.0007C0.833984 9.4149 9.4149 0.833984 20.0007 0.833984C30.5864 0.833984 39.1673 9.4149 39.1673 20.0007C39.1673 30.5864 30.5864 39.1673 20.0007 39.1673ZM20.0007 35.334C24.0673 35.334 27.9674 33.7185 30.843 30.843C33.7185 27.9674 35.334 24.0673 35.334 20.0007C35.334 15.934 33.7185 12.0339 30.843 9.15835C27.9674 6.28279 24.0673 4.66732 20.0007 4.66732C15.934 4.66732 12.0339 6.28279 9.15835 9.15835C6.28279 12.0339 4.66732 15.934 4.66732 20.0007C4.66732 24.0673 6.28279 27.9674 9.15835 30.843C12.0339 33.7185 15.934 35.334 20.0007 35.334ZM20.0007 17.2905L25.421 11.8682L28.1331 14.5803L22.7108 20.0007L28.1331 25.421L25.421 28.1331L20.0007 22.7108L14.5803 28.1331L11.8682 25.421L17.2905 20.0007L11.8682 14.5803L14.5803 11.8682L20.0007 17.2905Z" fill="#D80027"/>
</svg>
