<svg width="17" height="17" viewBox="0 0 17 17" fill="none" xmlns="http://www.w3.org/2000/svg">
<path d="M8.49935 3.49935C8.27834 3.49935 8.06637 3.58715 7.91009 3.74343C7.75381 3.89971 7.66602 4.11167 7.66602 4.33268V12.666C7.66602 12.887 7.75381 13.099 7.91009 13.2553C8.06637 13.4116 8.27834 13.4993 8.49935 13.4993C8.72036 13.4993 8.93232 13.4116 9.0886 13.2553C9.24489 13.099 9.33268 12.887 9.33268 12.666V4.33268C9.33268 4.11167 9.24489 3.89971 9.0886 3.74343C8.93232 3.58715 8.72036 3.49935 8.49935 3.49935ZM4.33268 8.49935C4.11167 8.49935 3.89971 8.58715 3.74343 8.74343C3.58715 8.89971 3.49935 9.11167 3.49935 9.33268V12.666C3.49935 12.887 3.58715 13.099 3.74343 13.2553C3.89971 13.4116 4.11167 13.4993 4.33268 13.4993C4.5537 13.4993 4.76566 13.4116 4.92194 13.2553C5.07822 13.099 5.16602 12.887 5.16602 12.666V9.33268C5.16602 9.11167 5.07822 8.89971 4.92194 8.74343C4.76566 8.58715 4.5537 8.49935 4.33268 8.49935ZM12.666 6.83268C12.445 6.83268 12.233 6.92048 12.0768 7.07676C11.9205 7.23304 11.8327 7.445 11.8327 7.66602V12.666C11.8327 12.887 11.9205 13.099 12.0768 13.2553C12.233 13.4116 12.445 13.4993 12.666 13.4993C12.887 13.4993 13.099 13.4116 13.2553 13.2553C13.4116 13.099 13.4993 12.887 13.4993 12.666V7.66602C13.4993 7.445 13.4116 7.23304 13.2553 7.07676C13.099 6.92048 12.887 6.83268 12.666 6.83268ZM14.3327 0.166016H2.66602C2.00297 0.166016 1.36709 0.429408 0.898249 0.898249C0.429408 1.36709 0.166016 2.00297 0.166016 2.66602V14.3327C0.166016 14.9957 0.429408 15.6316 0.898249 16.1005C1.36709 16.5693 2.00297 16.8327 2.66602 16.8327H14.3327C14.9957 16.8327 15.6316 16.5693 16.1005 16.1005C16.5693 15.6316 16.8327 14.9957 16.8327 14.3327V2.66602C16.8327 2.00297 16.5693 1.36709 16.1005 0.898249C15.6316 0.429408 14.9957 0.166016 14.3327 0.166016ZM15.166 14.3327C15.166 14.5537 15.0782 14.7657 14.9219 14.9219C14.7657 15.0782 14.5537 15.166 14.3327 15.166H2.66602C2.445 15.166 2.23304 15.0782 2.07676 14.9219C1.92048 14.7657 1.83268 14.5537 1.83268 14.3327V2.66602C1.83268 2.445 1.92048 2.23304 2.07676 2.07676C2.23304 1.92048 2.445 1.83268 2.66602 1.83268H14.3327C14.5537 1.83268 14.7657 1.92048 14.9219 2.07676C15.0782 2.23304 15.166 2.445 15.166 2.66602V14.3327Z" fill="white"/>
</svg>
