<svg width="16" height="16" viewBox="0 0 16 16" fill="none" xmlns="http://www.w3.org/2000/svg">
<path fill-rule="evenodd" clip-rule="evenodd" d="M7.51246 0.526516L7.61003 0.561547L7.71563 0.619914L7.79897 0.683655L9.18355 1.92161L10.5682 0.683686C10.7556 0.516038 11.0111 0.461808 11.2488 0.530597L11.3493 0.567638L11.4461 0.61991L11.5294 0.683656L12.9162 1.92344L14.3015 0.698898C14.4608 0.558161 14.6708 0.497178 14.875 0.524557L14.9764 0.545649L15.0752 0.581707C15.2637 0.666687 15.4047 0.827311 15.4673 1.02989L15.4919 1.13452L15.5 1.23895V12.663C15.5 14.124 14.3541 15.3221 12.9097 15.4057L12.843 15.407L3.15126 15.4105C1.79348 15.3616 0.680079 14.3242 0.51957 12.9887L0.504928 12.8271L0.5 12.663V11.3538C0.5 11.0313 0.712943 10.7538 1.02313 10.6622L1.11899 10.6405L1.22096 10.6328L2.86708 10.6326L2.86731 1.23898C2.86731 1.02631 2.96083 0.828488 3.1168 0.69364L3.19985 0.631687L3.29244 0.581567C3.48102 0.496989 3.69461 0.497965 3.88773 0.585117L3.98237 0.635878L4.06598 0.698986L5.45092 1.92344L6.83788 0.683686C7.02527 0.516037 7.28075 0.461807 7.51246 0.526516ZM11.0485 2.1875L9.66437 3.42597C9.4502 3.61757 9.14701 3.66102 8.88326 3.54202L8.78645 3.48974L8.70311 3.426L7.31866 2.1875L5.9341 3.42612C5.72099 3.61684 5.41925 3.66079 5.15598 3.54346L5.05931 3.49188L4.97588 3.42878L4.30859 2.83872V10.6323L10.7261 10.6325C11.0485 10.6325 11.326 10.8455 11.4176 11.1557L11.4394 11.2515L11.447 11.3535V12.6627C11.447 13.3823 12.033 13.9683 12.7526 13.9683C13.3879 13.9683 13.9247 13.5095 14.0363 12.9057L14.0529 12.7831L14.0582 12.6627L14.0577 2.83872L13.3917 3.42865C13.1775 3.61804 12.8755 3.66032 12.6129 3.5416L12.5166 3.4895L12.4336 3.42599L11.0485 2.1875ZM10.0048 12.0742H1.94141L1.94183 12.6631C1.94183 13.2985 2.40048 13.8352 3.00435 13.9468L3.12697 13.9634L3.24743 13.9687L10.3359 13.9684L10.3223 13.944C10.1784 13.6719 10.0808 13.3758 10.0347 13.0648L10.0133 12.8764L10.005 12.6631L10.0048 12.0742ZM12.1061 7.81641C12.5043 7.81641 12.8271 8.13917 12.8271 8.53737C12.8271 8.85981 12.6142 9.13733 12.304 9.22893L12.2082 9.2507L12.1062 9.25833H6.2776C5.8794 9.25833 5.55664 8.93557 5.55664 8.53737C5.55664 8.21493 5.76958 7.93741 6.07976 7.8458L6.17561 7.82404L6.2776 7.81641H12.1061ZM9.59539 5.30469C9.99359 5.30469 10.3163 5.62745 10.3163 6.02565C10.3163 6.34809 10.1034 6.62561 9.79323 6.71721L9.69738 6.73898L9.59539 6.74661H6.2776C5.8794 6.74661 5.55664 6.42385 5.55664 6.02565C5.55664 5.70321 5.76958 5.42569 6.07976 5.33409L6.17561 5.31232L6.2776 5.30469H9.59539Z" fill="#080D85"/>
</svg>
