<svg width="17" height="18" viewBox="0 0 17 18" fill="none" xmlns="http://www.w3.org/2000/svg">
<path d="M1.28375 13.1655C1.06824 12.7929 0.882087 12.4044 0.72678 12.0038C0.554673 11.5598 0.792824 11.0852 1.12526 10.7443C1.25426 10.612 1.36877 10.4652 1.46627 10.3063C1.70747 9.91318 1.83522 9.46101 1.83539 8.9998C1.83557 8.5386 1.70815 8.08633 1.46725 7.69304C1.36947 7.53341 1.25454 7.38601 1.12501 7.25322C0.79322 6.91308 0.555356 6.43977 0.726243 5.9964C1.03648 5.19148 1.46999 4.4396 2.01116 3.76782C2.30961 3.39734 2.83922 3.36648 3.30025 3.4839C3.47968 3.5296 3.66444 3.55542 3.85123 3.56036C4.31236 3.57254 4.76788 3.4569 5.16736 3.22624C5.56684 2.99557 5.89471 2.65887 6.11469 2.25341C6.2038 2.08916 6.2738 1.91622 6.32392 1.73796C6.4527 1.27999 6.74416 0.836744 7.2142 0.763452C8.06665 0.630535 8.93465 0.630936 9.78697 0.764643C10.2565 0.838297 10.5475 1.28106 10.6762 1.73857C10.7264 1.91714 10.7966 2.09038 10.8859 2.25488C11.106 2.66023 11.434 2.99677 11.8336 3.22726C12.2332 3.45775 12.6887 3.5732 13.1498 3.56084C13.3364 3.55583 13.5209 3.52999 13.7001 3.48432C14.1614 3.36678 14.6914 3.39764 14.9897 3.76863C15.2552 4.09886 15.4987 4.45358 15.7171 4.83221C15.936 5.21091 16.1215 5.59942 16.2747 5.99459C16.4466 6.43824 16.2084 6.91239 15.8761 7.25294C15.7469 7.38537 15.6322 7.53232 15.5346 7.69146C15.2934 8.08457 15.1656 8.53674 15.1654 8.99795C15.1653 9.45916 15.2927 9.91142 15.5336 10.3047C15.6314 10.4643 15.7463 10.6117 15.8758 10.7445C16.2076 11.0847 16.4455 11.558 16.2746 12.0014C15.9643 12.8063 15.5308 13.5582 14.9897 14.2299C14.6912 14.6004 14.1616 14.6313 13.7006 14.5139C13.5211 14.4682 13.3364 14.4423 13.1496 14.4374C12.6885 14.4252 12.233 14.5409 11.8335 14.7715C11.434 15.0022 11.1061 15.3389 10.8861 15.7443C10.797 15.9086 10.727 16.0815 10.6769 16.2598C10.5481 16.7178 10.2567 17.161 9.78663 17.2343C8.93419 17.3672 8.06618 17.3668 7.21386 17.2331C6.74435 17.1595 6.45333 16.7167 6.32466 16.2592C6.27444 16.0806 6.20428 15.9074 6.11493 15.7429C5.89479 15.3375 5.56679 15.001 5.16723 14.7705C4.76767 14.54 4.31213 14.4246 3.85102 14.4369C3.66465 14.4419 3.48031 14.4677 3.30128 14.5133C2.83972 14.6308 2.30943 14.5997 2.01098 14.2285C1.74181 13.8938 1.49863 13.5384 1.28375 13.1655ZM6.00042 13.3289C6.88844 13.8411 7.55612 14.6631 7.87542 15.6372C8.29125 15.6764 8.70875 15.6772 9.12458 15.638C9.44408 14.6638 10.1121 13.8417 11.0004 13.3297C11.8881 12.8161 12.9342 12.6484 13.9379 12.8589C14.1796 12.5189 14.3879 12.1564 14.5613 11.7772C13.8774 11.0134 13.4997 10.0241 13.5004 8.99888C13.5004 7.94888 13.8921 6.96804 14.5613 6.22054C14.3867 5.8415 14.1775 5.4794 13.9363 5.13888C12.9332 5.34913 11.8877 5.18177 11.0004 4.66888C10.1124 4.15669 9.44471 3.3347 9.12542 2.36054C8.70958 2.32138 8.29208 2.32054 7.87625 2.35971C7.55675 3.334 6.88875 4.15601 6.00042 4.66804C5.11274 5.18164 4.06665 5.34931 3.06292 5.13888C2.82172 5.47911 2.61303 5.84126 2.43958 6.22054C3.12339 6.98434 3.50115 7.9737 3.50042 8.99888C3.50042 10.0489 3.10875 11.0297 2.43958 11.7772C2.61414 12.1563 2.82337 12.5183 3.06458 12.8589C4.06768 12.6486 5.11309 12.816 6.00042 13.3289ZM8.50042 11.4989C7.83738 11.4989 7.20149 11.2355 6.73265 10.7666C6.26381 10.2978 6.00042 9.66192 6.00042 8.99888C6.00042 8.33584 6.26381 7.69995 6.73265 7.23111C7.20149 6.76227 7.83738 6.49888 8.50042 6.49888C9.16346 6.49888 9.79934 6.76227 10.2682 7.23111C10.737 7.69995 11.0004 8.33584 11.0004 8.99888C11.0004 9.66192 10.737 10.2978 10.2682 10.7666C9.79934 11.2355 9.16346 11.4989 8.50042 11.4989ZM8.50042 9.83221C8.72143 9.83221 8.93339 9.74441 9.08967 9.58813C9.24595 9.43185 9.33375 9.21989 9.33375 8.99888C9.33375 8.77786 9.24595 8.5659 9.08967 8.40962C8.93339 8.25334 8.72143 8.16554 8.50042 8.16554C8.2794 8.16554 8.06744 8.25334 7.91116 8.40962C7.75488 8.5659 7.66708 8.77786 7.66708 8.99888C7.66708 9.21989 7.75488 9.43185 7.91116 9.58813C8.06744 9.74441 8.2794 9.83221 8.50042 9.83221Z" fill="white"/>
</svg>
