<svg width="16" height="19" viewBox="0 0 16 19" fill="none" xmlns="http://www.w3.org/2000/svg">
<path d="M6.6675 11.7174C7.12415 11.66 7.4987 12.0385 7.4987 12.4987C7.4987 12.9589 7.12304 13.3249 6.66918 13.4013C5.65081 13.5726 4.703 14.0567 3.96316 14.7965C3.22333 15.5363 2.73929 16.4841 2.56797 17.5025C2.49161 17.9564 2.1256 18.332 1.66536 18.332C1.20513 18.332 0.826653 17.9575 0.884025 17.5008C1.06766 16.0392 1.73195 14.6707 2.78465 13.618C3.83736 12.5653 5.20587 11.901 6.6675 11.7174ZM7.4987 10.832C4.7362 10.832 2.4987 8.59453 2.4987 5.83203C2.4987 3.06953 4.7362 0.832031 7.4987 0.832031C10.2612 0.832031 12.4987 3.06953 12.4987 5.83203C12.4987 8.59453 10.2612 10.832 7.4987 10.832ZM7.4987 9.16536C9.34036 9.16536 10.832 7.6737 10.832 5.83203C10.832 3.99036 9.34036 2.4987 7.4987 2.4987C5.65703 2.4987 4.16536 3.99036 4.16536 5.83203C4.16536 7.6737 5.65703 9.16536 7.4987 9.16536ZM9.6612 15.6754C9.55554 15.2307 9.55554 14.7675 9.6612 14.3229L9.55598 14.2621C9.15751 14.0319 9.02103 13.5223 9.25112 13.1238C9.48127 12.7252 9.99101 12.5887 10.3896 12.8189L10.4945 12.8795C10.8263 12.5653 11.2274 12.3335 11.6654 12.2029V12.082C11.6654 11.6218 12.0385 11.2487 12.4987 11.2487C12.9589 11.2487 13.332 11.6218 13.332 12.082V12.2029C13.7754 12.3345 14.1754 12.5695 14.5029 12.8795L14.6078 12.8189C15.0064 12.5887 15.5161 12.7252 15.7463 13.1238C15.9764 13.5223 15.8399 14.0319 15.4414 14.2621L15.3362 14.3229C15.4417 14.7672 15.4417 15.2302 15.3362 15.6745L15.4414 15.7353C15.8399 15.9655 15.9764 16.475 15.7463 16.8736C15.5161 17.2722 15.0064 17.4087 14.6078 17.1785L14.5029 17.1179C14.1711 17.4321 13.77 17.6639 13.332 17.7945V17.9154C13.332 18.3756 12.9589 18.7487 12.4987 18.7487C12.0385 18.7487 11.6654 18.3756 11.6654 17.9154V17.7945C11.2274 17.6639 10.8263 17.4321 10.4945 17.1179L10.3893 17.1786C9.99089 17.4088 9.48134 17.2723 9.25128 16.8738C9.02115 16.4753 9.15786 15.9656 9.55657 15.7357L9.6612 15.6754ZM12.4987 16.2487C12.8302 16.2487 13.1482 16.117 13.3826 15.8826C13.617 15.6482 13.7487 15.3302 13.7487 14.9987C13.7487 14.6672 13.617 14.3492 13.3826 14.1148C13.1482 13.8804 12.8302 13.7487 12.4987 13.7487C12.1672 13.7487 11.8492 13.8804 11.6148 14.1148C11.3804 14.3492 11.2487 14.6672 11.2487 14.9987C11.2487 15.3302 11.3804 15.6482 11.6148 15.8826C11.8492 16.117 12.1672 16.2487 12.4987 16.2487Z" fill="white"/>
</svg>
