<svg width="356" height="245" viewBox="0 0 356 245" fill="none" xmlns="http://www.w3.org/2000/svg">
<path fill-rule="evenodd" clip-rule="evenodd" d="M118.335 82.076H134.158V71.0786H113.513L118.335 82.076Z" fill="#080D85"/>
<path fill-rule="evenodd" clip-rule="evenodd" d="M109.893 63.2205H131.027V52.2231H105.057L109.893 63.2205Z" fill="#080D85"/>
<path fill-rule="evenodd" clip-rule="evenodd" d="M100.766 44.3523H139.33V33.355H96L100.766 44.3523Z" fill="#080D85"/>
<path fill-rule="evenodd" clip-rule="evenodd" d="M203.108 29.4055C198.579 27.3819 193.547 26.2515 188.25 26.2515C168.179 26.2515 151.909 42.4963 151.909 62.5372C151.909 82.5781 168.179 98.8229 188.25 98.8229C193.547 98.8229 198.565 97.6925 203.108 95.6688V82.8153C198.943 85.8577 193.813 87.6581 188.25 87.6581C174.357 87.6581 163.091 76.4095 163.091 62.5372C163.091 48.6649 174.357 37.4163 188.25 37.4163C193.799 37.4163 198.943 39.2166 203.108 42.259V29.4055Z" fill="#080D85"/>
<path fill-rule="evenodd" clip-rule="evenodd" d="M218.916 6.9222C211.298 3.65648 198.285 0 189.48 0C161.19 0 137.261 18.6732 129.35 44.3523H141.174C148.624 24.9395 167.452 11.1648 189.48 11.1648C198.467 11.1648 206.923 13.4536 214.289 17.5009L218.916 6.9222ZM138.854 52.2096H127.477C126.89 55.6707 126.582 59.2434 126.582 62.872C126.582 62.9836 126.582 63.0953 126.582 63.2069H137.764C137.764 63.0953 137.764 62.9836 137.764 62.872C137.764 59.2294 138.141 55.6567 138.854 52.2096ZM189.48 125.758C157.528 125.758 131.139 101.935 127.113 71.0781H138.407C142.334 95.7524 163.72 114.593 189.48 114.593C198.467 114.593 206.532 112.695 213.898 108.662L218.287 119.366C210.669 122.646 198.285 125.758 189.48 125.758Z" fill="#080D85"/>
<path fill-rule="evenodd" clip-rule="evenodd" d="M203.108 42.2587L197.587 27.4513L206.462 7.39648L214.29 17.5007L203.108 42.2587Z" fill="#080D85"/>
<path fill-rule="evenodd" clip-rule="evenodd" d="M203.108 82.8149L197.573 97.3292L205.47 117.789L213.898 108.662L203.108 82.8149Z" fill="#080D85"/>
<path d="M33.364 206.504C30.4253 209.443 26.4733 210.912 21.508 210.912C15.8333 210.912 11.324 209.037 7.98 205.288C5.092 201.995 3.648 197.865 3.648 192.9C3.648 187.327 5.52267 182.767 9.272 179.22C12.5147 176.129 16.4413 174.584 21.052 174.584C25.5107 174.584 29.4373 175.952 32.832 178.688L31.008 182.336C28.3227 180.512 25.384 179.6 22.192 179.6C18.7973 179.6 16.0107 180.867 13.832 183.4C11.6533 185.933 10.564 189.176 10.564 193.128C10.564 196.979 11.78 200.12 14.212 202.552C16.4413 204.731 19.228 205.82 22.572 205.82C26.0173 205.82 28.9307 204.781 31.312 202.704L33.364 206.504ZM77.7818 210H72.6898L71.9298 206.428C69.1938 209.417 65.4952 210.912 60.8338 210.912C57.2872 210.912 54.4752 209.949 52.3978 208.024C50.3712 206.048 49.3578 203.388 49.3578 200.044C49.3578 196.244 50.9032 193.331 53.9938 191.304C57.1352 189.227 61.5685 188.188 67.2938 188.188H71.3218V187.808C71.3218 182.539 68.6618 179.904 63.3418 179.904C59.9472 179.904 56.7805 180.993 53.8418 183.172L51.8658 179.676C55.8178 176.281 60.3525 174.584 65.4698 174.584C73.6778 174.584 77.7818 179.473 77.7818 189.252V210ZM71.2458 192.596H67.9018C60.0992 192.596 56.1978 194.927 56.1978 199.588C56.1978 201.513 56.7552 203.033 57.8698 204.148C59.0352 205.263 60.5805 205.82 62.5058 205.82C64.4312 205.82 66.2298 205.339 67.9018 204.376C69.5738 203.363 70.6885 202.096 71.2458 200.576V192.596ZM104.619 178.916H104.923C107.304 176.028 110.091 174.584 113.283 174.584C117.336 174.584 120.325 176.155 122.251 179.296L116.779 182.716C115.107 181.044 113.283 180.208 111.307 180.208C108.773 180.208 106.645 181.5 104.923 184.084V210H98.3867V175.496H104.011L104.619 178.916Z" fill="#080D85"/>
<path d="M143.548 210H138.456V164.476L144.992 160.98V179.144C147.272 176.104 150.54 174.584 154.796 174.584C159.913 174.584 163.941 176.459 166.88 180.208C169.363 183.349 170.604 187.301 170.604 192.064C170.604 198.347 168.78 203.211 165.132 206.656C162.193 209.493 158.621 210.912 154.416 210.912C152.389 210.912 150.388 210.481 148.412 209.62C146.436 208.708 145.068 207.644 144.308 206.428L143.548 210ZM144.992 186.364V200.044C145.347 201.615 146.335 202.983 147.956 204.148C149.577 205.313 151.325 205.896 153.2 205.896C156.291 205.896 158.799 204.68 160.724 202.248C162.649 199.816 163.612 196.675 163.612 192.824C163.612 188.416 162.599 185.047 160.572 182.716C158.799 180.689 156.519 179.676 153.732 179.676C151.807 179.676 150.008 180.309 148.336 181.576C146.664 182.843 145.549 184.439 144.992 186.364ZM203.879 210.912C198.66 210.912 194.43 208.961 191.187 205.06C188.4 201.716 187.007 197.637 187.007 192.824C187.007 187.251 188.704 182.741 192.099 179.296C195.139 176.155 199.04 174.584 203.803 174.584C209.275 174.584 213.582 176.585 216.723 180.588C219.307 183.932 220.599 188.011 220.599 192.824C220.599 198.347 218.826 202.856 215.279 206.352C212.138 209.392 208.338 210.912 203.879 210.912ZM203.727 205.744C206.767 205.744 209.174 204.579 210.947 202.248C212.771 199.917 213.683 196.776 213.683 192.824C213.683 188.72 212.72 185.452 210.795 183.02C209.022 180.74 206.691 179.6 203.803 179.6C200.864 179.6 198.483 180.816 196.659 183.248C194.835 185.68 193.923 188.872 193.923 192.824C193.923 197.08 194.936 200.373 196.963 202.704C198.736 204.731 200.991 205.744 203.727 205.744ZM263.469 210H235.273V204.452L255.185 180.816H236.489V175.496H263.013V181.044L243.101 204.68H263.469V210ZM295.002 210.912C289.783 210.912 285.552 208.961 282.31 205.06C279.523 201.716 278.13 197.637 278.13 192.824C278.13 187.251 279.827 182.741 283.222 179.296C286.262 176.155 290.163 174.584 294.926 174.584C300.398 174.584 304.704 176.585 307.846 180.588C310.43 183.932 311.722 188.011 311.722 192.824C311.722 198.347 309.948 202.856 306.402 206.352C303.26 209.392 299.46 210.912 295.002 210.912ZM294.85 205.744C297.89 205.744 300.296 204.579 302.07 202.248C303.894 199.917 304.806 196.776 304.806 192.824C304.806 188.72 303.843 185.452 301.918 183.02C300.144 180.74 297.814 179.6 294.926 179.6C291.987 179.6 289.606 180.816 287.782 183.248C285.958 185.68 285.046 188.872 285.046 192.824C285.046 197.08 286.059 200.373 288.086 202.704C289.859 204.731 292.114 205.744 294.85 205.744ZM336.656 178.916H336.96C339.342 176.028 342.128 174.584 345.32 174.584C349.374 174.584 352.363 176.155 354.288 179.296L348.816 182.716C347.144 181.044 345.32 180.208 343.344 180.208C340.811 180.208 338.683 181.5 336.96 184.084V210H330.424V175.496H336.048L336.656 178.916Z" fill="black"/>
</svg>
